<svg width="455.111" height="455.111" xmlns="http://www.w3.org/2000/svg">

 <g>
  <title>background</title>
  <rect fill="none" id="canvas_background" height="402" width="582" y="-1" x="-1"/>
 </g>
 <g>
  <title>Layer 1</title>
  <circle id="svg_1" fill="#e8edf0" r="227.556" cy="227.556" cx="227.556"/>
  <path id="svg_2" fill="#d3d8db" d="m455.111,227.556c0,125.156 -102.4,227.556 -227.556,227.556c-72.533,0 -136.533,-32.711 -177.778,-85.333c38.4,31.289 88.178,49.778 142.222,49.778c125.156,0 227.556,-102.4 227.556,-227.556c0,-54.044 -18.489,-103.822 -49.778,-142.222c52.623,41.243 85.334,105.243 85.334,177.777z"/>
  <path transform="rotate(-45 227.55599975585926,227.55599975585935) " id="svg_3" fill="#191919" d="m331.378,331.378c-8.533,8.533 -22.756,8.533 -31.289,0l-72.533,-72.533l-72.533,72.533c-8.533,8.533 -22.756,8.533 -31.289,0c-8.533,-8.533 -8.533,-22.756 0,-31.289l72.533,-72.533l-72.533,-72.533c-8.533,-8.533 -8.533,-22.756 0,-31.289c8.533,-8.533 22.756,-8.533 31.289,0l72.533,72.533l72.533,-72.533c8.533,-8.533 22.756,-8.533 31.289,0c8.533,8.533 8.533,22.756 0,31.289l-72.533,72.533l72.533,72.533c8.533,8.533 8.533,22.755 0,31.289z"/>
  <g id="svg_4"/>
  <g id="svg_5"/>
  <g id="svg_6"/>
  <g id="svg_7"/>
  <g id="svg_8"/>
  <g id="svg_9"/>
  <g id="svg_10"/>
  <g id="svg_11"/>
  <g id="svg_12"/>
  <g id="svg_13"/>
  <g id="svg_14"/>
  <g id="svg_15"/>
  <g id="svg_16"/>
  <g id="svg_17"/>
  <g id="svg_18"/>
 </g>
</svg>